<?xml version="1.0" standalone="no"?>
<!DOCTYPE svg PUBLIC "-//W3C//DTD SVG 20010904//EN"
 "http://www.w3.org/TR/2001/REC-SVG-20010904/DTD/svg10.dtd">
<svg version="1.0" xmlns="http://www.w3.org/2000/svg"
 viewBox="50 700 1900 780"
 preserveAspectRatio="xMidYMid meet">
<metadata>
Created by potrace 1.16, written by Peter Selinger 2001-2019
</metadata>
<g transform="translate(0.000000,2000.000000) scale(0.100000,-0.100000)"
fill="#FFFFFF" stroke="none">
<path d="M3248 12619 l-3 -971 -1255 966 c-690 531 -1258 966 -1262 966 -5 0
-8 -855 -8 -1900 l0 -1900 460 0 460 0 2 926 3 925 1253 -920 c690 -507 1256
-921 1258 -921 2 0 4 855 4 1900 l0 1900 -455 0 -455 0 -2 -971z"/>
<path d="M19220 12840 c-178 -14 -340 -54 -456 -113 -116 -59 -205 -154 -275
-294 l-38 -78 -1 223 0 222 -407 -2 -408 -3 0 -1505 0 -1505 407 -3 407 -2 3
722 c4 704 4 725 25 799 37 130 98 238 200 352 197 221 427 337 701 354 l92 6
0 418 0 419 -77 -1 c-43 -1 -121 -5 -173 -9z"/>
<path d="M5691 12799 c-257 -30 -510 -132 -716 -287 -143 -108 -307 -290 -401
-442 -200 -325 -259 -764 -155 -1166 104 -406 411 -771 816 -971 204 -102 522
-157 768 -134 245 23 427 102 572 249 l60 61 5 -162 5 -162 410 0 410 0 3
1513 2 1512 -415 0 -415 0 0 -162 0 -162 -67 65 c-75 73 -128 111 -218 157
-171 85 -418 119 -664 91z m410 -787 c147 -52 254 -128 354 -250 108 -130 156
-272 156 -457 0 -296 -153 -543 -416 -670 -220 -107 -487 -98 -695 22 -83 49
-224 190 -273 273 -120 207 -129 474 -22 695 74 154 181 262 340 341 125 62
189 74 360 70 108 -3 153 -8 196 -24z"/>
<path d="M7760 11295 l0 -1515 410 0 409 0 3 823 3 822 26 77 c42 122 93 204
188 298 150 148 288 209 497 217 154 7 241 -11 368 -75 74 -38 108 -64 181
-137 103 -102 160 -199 197 -332 22 -77 22 -93 26 -885 l3 -808 380 0 379 0 0
828 c0 856 -3 931 -44 1117 -116 535 -493 923 -1006 1037 -92 20 -131 23 -320
23 -184 -1 -228 -4 -307 -22 -193 -46 -356 -131 -490 -257 l-83 -78 0 191 0
191 -410 0 -410 0 0 -1515z"/>
<path d="M13380 12655 c0 -85 -2 -155 -5 -155 -2 0 -24 21 -47 46 -92 100
-246 186 -400 225 -121 30 -378 37 -530 14 -316 -48 -612 -205 -843 -446 -167
-174 -266 -331 -340 -538 -86 -238 -105 -564 -49 -839 107 -529 554 -993 1084
-1127 256 -64 532 -61 740 10 116 40 293 146 354 214 11 12 23 21 29 21 5 0 7
-85 5 -217 -4 -203 -6 -224 -31 -298 -39 -118 -91 -199 -192 -300 -100 -99
-166 -143 -277 -182 -60 -22 -96 -27 -208 -30 -156 -6 -229 7 -343 61 -137 63
-277 195 -344 322 l-28 54 -398 0 c-375 0 -398 -1 -393 -17 3 -10 14 -54 25
-98 71 -281 235 -533 475 -733 266 -221 518 -325 859 -352 282 -23 553 30 795
155 145 76 249 153 377 280 205 205 333 425 400 685 44 171 44 175 45 1828 l0
1572 -380 0 -380 0 0 -155z m-533 -648 c221 -64 422 -253 492 -463 82 -248 33
-529 -126 -715 -159 -188 -353 -275 -603 -273 -132 1 -219 24 -337 89 -81 45
-232 193 -280 275 -78 132 -114 308 -94 461 23 176 86 304 216 435 123 124
235 184 400 214 80 14 241 3 332 -23z"/>
<path d="M15744 12789 c-128 -11 -300 -52 -418 -99 -362 -145 -686 -465 -837
-829 -123 -296 -138 -713 -37 -1039 149 -484 603 -900 1095 -1003 356 -74 721
-29 1021 126 143 75 249 152 373 275 309 306 449 644 449 1077 -1 252 -48 459
-152 667 -139 278 -386 529 -657 669 -182 94 -341 139 -559 157 -130 11 -148
11 -278 -1z m368 -791 c120 -40 203 -91 299 -187 141 -142 207 -286 216 -481
7 -143 -13 -245 -74 -370 -40 -81 -61 -109 -142 -190 -156 -156 -313 -223
-526 -224 -131 0 -205 17 -320 74 -196 96 -353 290 -400 495 -24 101 -21 270
5 365 73 261 274 462 530 530 108 29 303 23 412 -12z"/>
<path d="M720 9190 l0 -300 5055 0 5055 0 0 300 0 300 -5055 0 -5055 0 0 -300z"/>
<path d="M6950 8664 c-273 -35 -435 -94 -581 -213 -111 -89 -176 -183 -226
-326 -25 -74 -27 -91 -27 -235 -1 -146 1 -159 28 -230 79 -207 233 -352 479
-452 103 -41 215 -69 422 -103 235 -39 327 -62 390 -100 79 -46 106 -99 86
-165 -22 -74 -112 -113 -305 -130 -98 -9 -148 -9 -209 0 -204 30 -282 103
-310 291 l-11 76 -284 8 c-156 4 -286 5 -288 2 -3 -3 -6 -54 -6 -114 -1 -258
104 -472 315 -639 214 -169 486 -240 825 -215 346 27 557 108 707 274 112 123
161 244 171 422 24 407 -241 707 -730 826 -45 10 -145 28 -223 39 -328 47
-458 114 -458 236 0 113 157 172 429 161 150 -6 220 -25 299 -83 63 -46 97
-115 97 -196 l0 -58 295 0 295 0 0 63 c0 206 -85 417 -228 569 -136 144 -295
229 -512 273 -73 15 -370 28 -440 19z"/>
<path d="M727 8623 c-4 -3 -7 -692 -7 -1530 l0 -1524 883 3 882 3 90 28 c196
61 351 149 465 266 155 159 220 334 220 594 0 293 -81 536 -236 705 -31 35
-74 74 -94 87 l-38 24 52 103 c69 138 96 249 96 398 0 151 -28 267 -94 398
-121 239 -408 410 -737 441 -124 12 -1471 16 -1482 4z m1444 -573 c112 -22
201 -89 247 -188 23 -49 27 -70 27 -152 0 -82 -4 -102 -25 -144 -33 -64 -87
-119 -152 -153 l-53 -28 -377 -3 -378 -3 0 341 0 340 329 0 c180 0 352 -5 382
-10z m327 -1268 c62 -33 130 -104 157 -165 94 -209 -24 -434 -250 -476 -37 -7
-224 -11 -502 -11 l-443 0 0 340 0 341 498 -3 497 -3 43 -23z"/>
<path d="M4447 8609 c-278 -27 -510 -137 -723 -341 -209 -202 -337 -442 -375
-703 -15 -105 -12 -317 6 -420 57 -320 241 -605 520 -803 195 -138 392 -204
655 -217 269 -15 475 52 627 202 l63 63 0 -140 0 -140 340 0 340 0 0 1255 0
1255 -340 0 -340 0 0 -137 0 -137 -57 55 c-127 124 -273 188 -473 209 -106 11
-119 11 -243 -1z m297 -645 c100 -26 173 -71 267 -164 132 -131 179 -244 179
-433 0 -178 -50 -297 -180 -428 -105 -107 -187 -150 -330 -175 -227 -39 -440
43 -580 224 -94 121 -130 227 -130 382 0 183 49 299 180 430 92 92 170 138
278 165 79 19 240 19 316 -1z"/>
<path d="M9446 8599 c-292 -28 -555 -156 -762 -371 -222 -229 -335 -485 -351
-799 -19 -372 112 -708 376 -962 226 -218 452 -321 759 -348 353 -31 662 61
898 267 94 82 307 345 291 360 -6 6 -602 194 -616 194 -6 0 -32 -20 -59 -43
-283 -251 -715 -188 -925 134 -19 30 -38 64 -42 77 l-6 22 910 0 910 0 -5 173
c-10 333 -62 523 -202 737 -65 99 -217 260 -312 330 -175 130 -376 207 -599
229 -114 12 -137 12 -265 0z m279 -644 c88 -23 192 -77 257 -135 56 -49 139
-163 152 -207 l7 -23 -566 0 c-536 0 -567 1 -561 18 19 48 78 132 136 191 70
72 171 129 270 155 73 20 231 20 305 1z"/>
</g>
</svg>
